# xmcd CD database file
#
# Track frame offsets:
#	150
#	29926
#	52392
#	82668
#	116017
#	149339
#	176491
#	210486
#	237581
#
# Disc length: 3459 seconds
#
# Revision: 1
# Processed by: cddbd v1.5.2PL0 Copyright (c) Steve Scherf et al.
# Submitted via: CDex 1.70beta2
#
DISCID=840d8109
DTITLE=Various Artist - Unwind: Creative Healing-Compilation of Detroit Jazz Artists
DYEAR=1998
DGENRE=Jazz
TTITLE0=All My Love- Marcus Belgrave
TTITLE1=Chances Are - Larry Nozero
TTITLE2=Fuschia Moods - George Benson
TTITLE3=City Sister- Donald Walden
TTITLE4=ODRP Blues - Steve Wood
TTITLE5=In the Wee Small Hours of the Morning - Usula Walker
TTITLE6=Born to be Blue - Leonard King
TTITLE7=Children of the Forest Rain - Straight Ahead
TTITLE8=Eye of Love - Charlie Gabreil w/JC Heard
EXTD=YEAR: 1998
EXTT0=
EXTT1=
EXTT2=
EXTT3=
EXTT4=
EXTT5=
EXTT6=
EXTT7=
EXTT8=
PLAYORDER=
